<?xml version="1.0" encoding="UTF-8" standalone="no"?>
<!-- Created with Inkscape (http://www.inkscape.org/) -->

<svg
   xmlns:dc="http://purl.org/dc/elements/1.1/"
   xmlns:cc="http://creativecommons.org/ns#"
   xmlns:rdf="http://www.w3.org/1999/02/22-rdf-syntax-ns#"
   xmlns:svg="http://www.w3.org/2000/svg"
   xmlns="http://www.w3.org/2000/svg"
   xmlns:xlink="http://www.w3.org/1999/xlink"
   xmlns:sodipodi="http://sodipodi.sourceforge.net/DTD/sodipodi-0.dtd"
   xmlns:inkscape="http://www.inkscape.org/namespaces/inkscape"
   width="555.31079mm"
   height="158.17395mm"
   viewBox="0 0 555.31079 158.17395"
   version="1.1"
   id="svg8"
   inkscape:version="0.92.5 (2060ec1f9f, 2020-04-08)"
   sodipodi:docname="cash2Text.svg">
  <defs
     id="defs2">
    <linearGradient
       inkscape:collect="always"
       id="linearGradient880">
      <stop
         style="stop-color:#000000;stop-opacity:1;"
         offset="0"
         id="stop876" />
      <stop
         style="stop-color:#000000;stop-opacity:0;"
         offset="1"
         id="stop878" />
    </linearGradient>
    <linearGradient
       inkscape:collect="always"
       xlink:href="#linearGradient880"
       id="linearGradient884"
       x1="-1509.2188"
       y1="-242.04102"
       x2="-943.625"
       y2="-242.04102"
       gradientUnits="userSpaceOnUse" />
  </defs>
  <sodipodi:namedview
     id="base"
     pagecolor="#ffffff"
     bordercolor="#666666"
     borderopacity="1.0"
     inkscape:pageopacity="0.0"
     inkscape:pageshadow="2"
     inkscape:zoom="0.32"
     inkscape:cx="570.89711"
     inkscape:cy="-414.34313"
     inkscape:document-units="mm"
     inkscape:current-layer="layer1"
     showgrid="false"
     showborder="false"
     inkscape:window-width="2560"
     inkscape:window-height="1403"
     inkscape:window-x="0"
     inkscape:window-y="0"
     inkscape:window-maximized="1"
     fit-margin-top="0"
     fit-margin-left="0"
     fit-margin-right="0"
     fit-margin-bottom="0" />
  <metadata
     id="metadata5">
    <rdf:RDF>
      <cc:Work
         rdf:about="">
        <dc:format>image/svg+xml</dc:format>
        <dc:type
           rdf:resource="http://purl.org/dc/dcmitype/StillImage" />
        <dc:title></dc:title>
      </cc:Work>
    </rdf:RDF>
  </metadata>
  <g
     inkscape:label="Layer 1"
     inkscape:groupmode="layer"
     id="layer1"
     transform="translate(237.4919,-30.72498)">
    <flowRoot
       xml:space="preserve"
       id="flowRoot860"
       style="font-style:normal;font-weight:normal;font-size:133.33332825px;line-height:1.25;font-family:sans-serif;letter-spacing:0px;word-spacing:0px;fill:#000000;fill-opacity:1;stroke:none"><flowRegion
         id="flowRegion862"
         style="font-size:133.33332825px"><rect
           id="rect864"
           width="2577.1428"
           height="931.42859"
           x="-1500"
           y="-106.05174"
           style="font-size:133.33332825px" /></flowRegion><flowPara
         id="flowPara866" /></flowRoot>    <g
       aria-label="Cash2"
       transform="matrix(1.2103219,0,0,1.2103219,1595.8432,413.21179)"
       style="font-style:normal;font-variant:normal;font-weight:500;font-stretch:normal;font-size:192px;line-height:1.25;font-family:aakar;-inkscape-font-specification:'aakar, Medium';font-variant-ligatures:normal;font-variant-caps:normal;font-variant-numeric:normal;font-feature-settings:normal;text-align:start;letter-spacing:0px;word-spacing:0px;writing-mode:lr-tb;text-anchor:start;fill:#000000;fill-opacity:1;stroke:none"
       id="flowRoot868">
      <path
         d="m -1405.4375,-272.52073 h -2.625 q -3.75,-15.75 -13.6875,-24.75 -10.875,-9.9375 -27.5625,-9.9375 -7.3125,0 -14.8125,3 -7.5,2.8125 -13.3125,8.4375 -6.75,6.5625 -10.5,15.5625 -5.0625,12.1875 -5.0625,30.5625 0,27.9375 14.0625,42.9375 12.375,13.125 31.875,13.125 11.4375,0 21.5625,-4.3125 10.3125,-4.5 20.8125,-14.625 l 3.375,3.375 q -2.8125,3.1875 -5.4375,6.1875 -7.5,7.125 -16.6875,11.4375 -13.125,6.1875 -28.6875,6.1875 -25.5,0 -42.5625,-14.8125 -20.0625,-17.4375 -20.0625,-49.875 0,-30 19.6875,-48 18.1875,-16.6875 44.0625,-16.6875 8.25,0 16.6875,1.875 8.0625,2.25 16.3125,4.3125 3.1875,0 5.4375,-1.5 2.4375,-1.5 3.1875,-4.6875 h 3.9375 z"
         style="font-style:normal;font-variant:normal;font-weight:500;font-stretch:normal;font-size:192px;font-family:aakar;-inkscape-font-specification:'aakar, Medium';font-variant-ligatures:normal;font-variant-caps:normal;font-variant-numeric:normal;font-feature-settings:normal;text-align:start;writing-mode:lr-tb;text-anchor:start;fill:#000000;fill-opacity:1"
         id="path932" />
      <path
         d="m -1341.125,-211.02073 v -27.1875 q -18.5625,6.1875 -25.6875,14.25 -4.6875,5.25 -4.6875,12 0,6.75 3.5625,10.875 3.5625,4.125 8.8125,4.125 2.8125,0 6.1875,-1.125 3.375,-1.125 5.4375,-2.25 4.125,-1.875 5.25,-3.9375 1.125,-2.25 1.125,-6.75 z m 29.0625,10.6875 v 4.875 q -5.0625,6 -10.125,8.0625 -3.1875,1.3125 -6.5625,1.3125 -4.6875,0 -7.3125,-1.6875 -4.875,-3.1875 -4.875,-12 -6.9375,6.1875 -12.1875,9.1875 -7.875,4.5 -15,4.5 -8.0625,0 -14.0625,-5.25 -5.8125,-5.25 -5.8125,-14.25 0,-12.75 12,-21 8.25,-5.625 34.875,-16.125 v -11.4375 q 0,-8.8125 -5.0625,-12.75 -3.75,-2.8125 -9.375,-2.8125 -5.0625,0 -9.1875,2.625 -4.125,2.4375 -4.125,6.5625 0,1.875 0.1875,3.9375 0.375,1.875 0.75,3.375 0,3.1875 -2.4375,5.625 -2.4375,2.4375 -6,2.4375 -3.9375,0 -6,-2.625 -2.0625,-2.8125 -2.0625,-5.625 0,-6.9375 7.125,-13.125 8.8125,-7.6875 23.4375,-7.6875 18.1875,0 24.375,10.6875 3.5625,6.1875 3.5625,19.3125 v 36.5625 q 0,5.8125 0.75,8.4375 0.9375,2.4375 4.6875,2.4375 2.625,0 4.5,-0.9375 1.875,-0.9375 3.9375,-2.625 z"
         style="font-style:normal;font-variant:normal;font-weight:500;font-stretch:normal;font-size:192px;font-family:aakar;-inkscape-font-specification:'aakar, Medium';font-variant-ligatures:normal;font-variant-caps:normal;font-variant-numeric:normal;font-feature-settings:normal;text-align:start;writing-mode:lr-tb;text-anchor:start;fill:#000000;fill-opacity:1"
         id="path934" />
      <path
         d="m -1252.625,-246.83323 h -2.8125 q -2.8125,-13.3125 -8.8125,-18.75 -4.6875,-4.3125 -12,-4.3125 -6.9375,0 -10.6875,3.9375 -3.5625,3.75 -3.5625,8.25 0,4.6875 2.0625,7.875 2.25,3.1875 6,5.4375 l 20.25,12 q 8.0625,4.875 11.25,8.8125 4.5,5.4375 4.5,13.3125 0,11.4375 -9,18.1875 -7.875,6 -18.1875,6 -4.5,0 -12,-1.6875 -7.5,-1.6875 -9.75,-1.6875 -2.625,0 -4.125,2.25 h -2.4375 v -29.25 h 3 q 2.625,11.8125 6,16.875 6.1875,9.375 18.1875,9.375 5.8125,0 9.9375,-2.8125 5.25,-3.5625 5.25,-10.875 0,-8.4375 -9.75,-13.875 l -10.875,-6.1875 q -13.6875,-7.6875 -17.8125,-13.6875 -4.125,-6.1875 -4.125,-13.6875 0,-9 6.1875,-15.375 7.3125,-7.5 20.0625,-7.5 4.125,0 8.4375,1.3125 4.3125,1.125 8.8125,2.4375 1.6875,0 3.1875,-2.0625 h 2.0625 z"
         style="font-style:normal;font-variant:normal;font-weight:500;font-stretch:normal;font-size:192px;font-family:aakar;-inkscape-font-specification:'aakar, Medium';font-variant-ligatures:normal;font-variant-caps:normal;font-variant-numeric:normal;font-feature-settings:normal;text-align:start;writing-mode:lr-tb;text-anchor:start;fill:#000000;fill-opacity:1"
         id="path936" />
      <path
         d="m -1147.4375,-190.77073 v 2.8125 h -39.75 v -2.8125 q 7.6875,-0.75 9.75,-3 3,-3.1875 3,-13.3125 v -37.125 q 0,-9.9375 -3.375,-14.8125 -3.375,-5.0625 -11.0625,-5.0625 -4.6875,0 -9.75,2.625 -5.0625,2.625 -10.6875,9.1875 v 45.1875 q 0,10.125 2.8125,13.125 2.25,2.4375 9.9375,3.1875 v 2.8125 h -40.5 v -2.8125 q 7.875,-0.9375 9.9375,-3.5625 2.0625,-2.625 2.0625,-12.75 v -88.3125 q 0,-5.4375 -0.9375,-6.9375 -1.6875,-2.625 -7.3125,-2.625 l -3.5625,0.1875 v -3 q 6.5625,-1.875 12.375,-3.5625 6,-1.6875 14.25,-4.6875 l 0.9375,0.5625 v 56.625 q 5.4375,-7.5 12.1875,-11.4375 6.75,-3.9375 15.1875,-3.9375 11.625,0 17.4375,7.3125 5.8125,7.3125 5.8125,22.5 v 37.3125 q 0,9.75 1.875,12.375 2.0625,2.625 9.375,3.9375 z"
         style="font-style:normal;font-variant:normal;font-weight:500;font-stretch:normal;font-size:192px;font-family:aakar;-inkscape-font-specification:'aakar, Medium';font-variant-ligatures:normal;font-variant-caps:normal;font-variant-numeric:normal;font-feature-settings:normal;text-align:start;writing-mode:lr-tb;text-anchor:start;fill:#000000;fill-opacity:1"
         id="path938" />
      <path
         d="m -1055.9375,-213.64573 -10.3125,25.6875 h -73.125 v -2.25 l 33.375,-35.4375 q 24.375,-26.0625 24.375,-48.375 0,-9.75 -5.0625,-16.875 -7.125,-9.9375 -21.75,-9.9375 -11.25,0 -18.1875,8.25 -3.9375,4.6875 -8.625,16.125 l -3.9375,-0.9375 q 3.9375,-19.6875 15.75,-29.25 9.9375,-8.0625 24,-8.0625 13.5,0 23.625,9.375 10.3125,9.1875 10.3125,24.375 0,13.125 -8.8125,27 -4.875,7.6875 -15.1875,18.75 l -31.5,33 h 44.8125 q 6,0 8.8125,-1.6875 3.75,-2.25 9,-10.6875 z"
         style="font-style:normal;font-variant:normal;font-weight:500;font-stretch:normal;font-size:192px;font-family:aakar;-inkscape-font-specification:'aakar, Medium';font-variant-ligatures:normal;font-variant-caps:normal;font-variant-numeric:normal;font-feature-settings:normal;text-align:start;writing-mode:lr-tb;text-anchor:start;fill:#000000;fill-opacity:1"
         id="path940" />
    </g>
  </g>
</svg>
